<mxfile host="app.diagrams.net" modified="2024-07-01T06:12:21.301Z" agent="Mozilla/5.0 (Windows NT 10.0; Win64; x64) AppleWebKit/537.36 (KHTML, like Gecko) Chrome/126.0.0.0 Safari/537.36 Edg/126.0.0.0" version="24.6.4" etag="BdB4DH0NfA7_HKE5e6-A" type="github">
  <diagram name="Page-1" id="XgrthU6mgCn6uhY1n1wD">
    <mxGraphModel>
      <root>
        <mxCell id="0" />
        <mxCell id="1" parent="0" />
      </root>
    </mxGraphModel>
  </diagram>
</mxfile>
